<svg width="20" height="20" viewBox="0 0 20 20" fill="none" xmlns="http://www.w3.org/2000/svg">
<g clip-path="url(#clip0_103_94)">
<path d="M9.99819 18.3301C14.5997 18.3301 18.33 14.5998 18.33 9.99831C18.33 5.39678 14.5997 1.6665 9.99819 1.6665C5.39666 1.6665 1.66638 5.39678 1.66638 9.99831C1.66638 14.5998 5.39666 18.3301 9.99819 18.3301Z" stroke="white" stroke-width="1.66636" stroke-linecap="round" stroke-linejoin="round"/>
<path d="M9.99811 14.9972C12.759 14.9972 14.9972 12.759 14.9972 9.99811C14.9972 7.23719 12.759 4.99902 9.99811 4.99902C7.23719 4.99902 4.99902 7.23719 4.99902 9.99811C4.99902 12.759 7.23719 14.9972 9.99811 14.9972Z" stroke="white" stroke-width="1.66636" stroke-linecap="round" stroke-linejoin="round"/>
<path d="M9.99845 11.6654C10.9189 11.6654 11.6651 10.9192 11.6651 9.9987C11.6651 9.07822 10.9189 8.33203 9.99845 8.33203C9.07798 8.33203 8.33179 9.07822 8.33179 9.9987C8.33179 10.9192 9.07798 11.6654 9.99845 11.6654Z" stroke="white" stroke-width="1.66636" stroke-linecap="round" stroke-linejoin="round"/>
</g>
<defs>
<clipPath id="clip0_103_94">
<rect width="19.9963" height="19.9963" fill="white"/>
</clipPath>
</defs>
</svg>
